<svg xmlns="http://www.w3.org/2000/svg" xmlns:xlink="http://www.w3.org/1999/xlink" version="1.1" x="0px" y="0px" viewBox="0 0 100 100" enable-background="new 0 0 100 100" xml:space="preserve"><path d="M83.863,53.887c0-6.267-2.548-6.267-3.821-10.026c-1.015-2.992,0.595-5.786,2.338-8.934  c6.322-8.171,4.048,21.465,4.048,21.465c7.52-23.811-3.838-40.102-3.838-40.102C73.704,2.557,54.703,0.02,49.523,0.001V0  c-0.01,0-0.021,0-0.03,0c-0.01,0-0.021,0-0.031,0v0.001c-5.18,0.019-24.181,2.556-33.067,16.29c0,0-11.357,16.291-3.838,40.102  c0,0-2.275-29.637,4.048-21.465c1.743,3.147,3.352,5.942,2.337,8.934c-1.272,3.759-3.822,3.759-3.822,10.026  c0,6.265-1.274,7.519-2.548,8.771c-1.274,1.253-1.274,2.506,0,6.266c1.274,3.76,2.548,6.266,6.37,8.772  c3.823,2.506,3.823,3.76,8.919,1.253c5.097-2.507,6.371-1.253,6.371-1.253c-1.273,1.253-1.504,12.532-1.504,15.037  c0,2.5,10.271,6.24,16.271,6.265V99c0,0,0.482,0,0.493,0C49.502,99,49,99,49,99v-0.002c7-0.024,16.764-3.765,16.764-6.265  c0-2.505,0.133-13.784-1.143-15.037c0,0,1.34-1.254,6.437,1.253c5.096,2.507,5.13,1.253,8.952-1.253  c3.822-2.507,5.111-5.013,6.386-8.772c1.273-3.76,1.281-5.013,0.008-6.266S83.863,60.151,83.863,53.887z M39.33,66.418  c-3.822,2.506-8.919,5.013-14.016,3.76c-5.096-1.254-2.548-2.507-5.096-8.772c-2.547-6.266-1.275-8.772,1.274-11.279  c2.548-2.506,7.645-1.253,14.016,2.506C48.249,60.151,43.152,63.911,39.33,66.418z M53.022,82.709  C50.162,83.646,50,81.075,49,78.146v-2.956c0,0.742,0.029,1.532,0,2.313c-0.03-0.781,0-1.571,0-2.313v2.956  c0,2.93-0.67,5.5-3.531,4.563c-3.822-1.253-2.432-6.267-1.158-10.025c1.269-3.744,2.596-8.418,5.125-8.455  c2.526,0.037,3.695,4.711,4.964,8.455C55.674,76.442,56.845,81.456,53.022,82.709z M78.767,61.405c-2.548,6.266,0,7.519-5.096,8.772  c-5.097,1.253-10.193-1.254-14.016-3.76c-3.823-2.507-8.919-6.267,3.822-13.785c6.37-3.759,11.468-5.013,14.016-2.506  C80.042,52.633,81.315,55.14,78.767,61.405z"/></svg>
